Coordinates
version=1
nRows=4
nColumns=114
inDegrees=yes

Units are S.I. units (second, meters, Newtons, ...)
If the header above contains a line with 'inDegrees', this indicates whether rotational values are in degrees (yes) or radians (no).

endheader 
time	pelvis_tilt	pelvis_list	pelvis_rotation	pelvis_tx	pelvis_ty	pelvis_tz	hip_flexion_l	hip_adduction_l	hip_rotation_l	hip_flexion_r	hip_adduction_r	hip_rotation_r	knee_angle_l	knee_angle_r	ankle_angle_l	ankle_angle_r	subtalar_angle_l	subtalar_angle_r	mtp_angle_l	mtp_angle_r	lumbar_extension	lumbar_bending	lumbar_rotation	arm_flex_l	arm_add_l	arm_rot_l	arm_flex_r	arm_add_r	arm_rot_r	elbow_flex_l	elbow_flex_r	pro_sup_l	pro_sup_r	addbrev_l/activation	addlong_l/activation	addmagDist_l/activation	addmagIsch_l/activation	addmagMid_l/activation	addmagProx_l/activation	bflh_l/activation	bfsh_l/activation	edl_l/activation	ehl_l/activation	fdl_l/activation	fhl_l/activation	gaslat_l/activation	gasmed_l/activation	glmax1_l/activation	glmax2_l/activation	glmax3_l/activation	glmed1_l/activation	glmed2_l/activation	glmed3_l/activation	glmin1_l/activation	glmin2_l/activation	glmin3_l/activation	grac_l/activation	iliacus_l/activation	perbrev_l/activation	perlong_l/activation	piri_l/activation	psoas_l/activation	recfem_l/activation	sart_l/activation	semimem_l/activation	semiten_l/activation	soleus_l/activation	tfl_l/activation	tibant_l/activation	tibpost_l/activation	vasint_l/activation	vaslat_l/activation	vasmed_l/activation	addbrev_r/activation	addlong_r/activation	addmagDist_r/activation	addmagIsch_r/activation	addmagMid_r/activation	addmagProx_r/activation	bflh_r/activation	bfsh_r/activation	edl_r/activation	ehl_r/activation	fdl_r/activation	fhl_r/activation	gaslat_r/activation	gasmed_r/activation	glmax1_r/activation	glmax2_r/activation	glmax3_r/activation	glmed1_r/activation	glmed2_r/activation	glmed3_r/activation	glmin1_r/activation	glmin2_r/activation	glmin3_r/activation	grac_r/activation	iliacus_r/activation	perbrev_r/activation	perlong_r/activation	piri_r/activation	psoas_r/activation	recfem_r/activation	sart_r/activation	semimem_r/activation	semiten_r/activation	soleus_r/activation	tfl_r/activation	tibant_r/activation	tibpost_r/activation	vasint_r/activation	vaslat_r/activation	vasmed_r/activation	
          0.00000000	         -5.22327633	         -2.46371010	         -1.52294618	          0.86806688	          0.92305741	         -0.20441079	         23.39477768	         -2.21166891	         -8.62556870	         -3.10633622	          4.04406598	         -3.69163413	          3.45914746	          4.75536976	          6.31262138	         14.34572398	          4.50646747	          4.10264821	        -44.99994301	        -26.24282067	         -4.12669241	          1.60880996	         -0.11238086	         -1.38438125	         -3.57855417	         16.74226307	          3.83681906	         -7.13482051	         24.01070485	         17.14751573	         23.22307542	         65.14588944	         80.06486090	          0.15429335	          0.12001747	          0.12409396	          0.10565566	          0.14696053	          0.17948688	          0.25765914	          0.26626796	          0.41431945	          0.32533908	          0.21621075	          0.15079967	          0.17337980	          0.07523970	          0.11778886	          0.08905672	          0.10769044	          0.05557986	          0.10220654	          0.12420262	          0.10343515	          0.11267050	          0.14646986	          0.16584061	          0.21813472	          0.22323951	          0.25194220	          0.50829567	          0.30090932	          0.13199354	          0.19499332	          0.20473852	          0.15469073	          0.02847439	          0.20430357	          0.65037625	          0.14525748	          0.08661394	          0.03833329	          0.08065761	          0.14150595	          0.23682278	          0.07524860	          0.09800244	          0.08334994	          0.06869163	          0.03319283	          0.20947694	          0.29871146	          0.29210838	          0.32332723	          0.31470170	          0.17034254	          0.08631858	          0.02458181	          0.02018664	          0.02053616	          0.44430519	          0.04624948	          0.02619603	          0.25431626	          0.12272408	          0.07439993	          0.09758644	          0.30630307	          0.14674305	          0.08339843	          0.02703448	          0.11400010	          0.54542217	          0.14241696	          0.06415405	          0.07446954	          0.01884639	          0.72687470	          0.47876639	          0.46217415	          0.08421664	          0.04473925	          0.06889153	
          0.01000000	         -5.32822614	         -1.76698612	         -1.37765026	          0.87496780	          0.92244829	         -0.20582484	         22.84248112	         -1.37647881	         -9.55617731	         -3.59708885	          3.13415391	         -4.24639227	          3.06269533	          4.48559643	          5.81896581	         14.65933004	          5.05546897	          5.06781830	        -39.92877336	        -23.37719415	         -3.91122656	          0.74242958	         -0.08631937	         -1.12139628	         -3.66962945	         16.12239669	          3.63054401	         -6.70703166	         23.14418020	         16.68126294	         22.90894108	         65.25947532	         80.02142592	          0.14551957	          0.10865720	          0.12111883	          0.10335801	          0.14401222	          0.21543712	          0.23270573	          0.29739677	          0.40160031	          0.31713538	          0.20829689	          0.15301491	          0.17170503	          0.11133860	          0.19968537	          0.14113484	          0.10783882	          0.10855314	          0.16783401	          0.24194114	          0.14210983	          0.15280438	          0.22845814	          0.19678537	          0.26890213	          0.22869618	          0.23699600	          0.47820740	          0.36324320	          0.12573299	          0.32096786	          0.19731437	          0.16568654	          0.02644512	          0.23635174	          0.61069396	          0.13831975	          0.07893346	          0.03528135	          0.07200355	          0.14163130	          0.22128476	          0.08636325	          0.10007496	          0.09433534	          0.08637360	          0.03827356	          0.28758726	          0.26002438	          0.28110962	          0.30829175	          0.31979204	          0.19636112	          0.09655363	          0.05166984	          0.03160248	          0.02378578	          0.61041099	          0.10600774	          0.05269440	          0.42867052	          0.24757608	          0.13930858	          0.11284031	          0.53352170	          0.12491480	          0.07090492	          0.05963818	          0.28399630	          0.52980059	          0.26522239	          0.05804947	          0.08467814	          0.03437875	          0.63078698	          0.49545706	          0.45480947	          0.10176977	          0.05388751	          0.08251041	
          0.02000000	         -5.41316919	         -1.09823693	         -1.25113854	          0.88193640	          0.92188590	         -0.20720218	         22.27606603	         -0.59157102	        -10.43296903	         -4.11280897	          2.25741941	         -4.79772816	          2.68374571	          4.22682927	          5.29698859	         14.95015736	          5.54700546	          5.99331071	        -35.42821309	        -20.93307375	         -3.72750903	         -0.11114747	         -0.05533078	         -0.86903331	         -3.77631405	         15.55951383	          3.42438588	         -6.29774900	         22.32500246	         16.25344760	         22.63946346	         65.38407325	         79.98471906	          0.13480720	          0.09650425	          0.11948918	          0.10923453	          0.13885966	          0.20581751	          0.21158727	          0.37246813	          0.41256951	          0.32392401	          0.20288001	          0.15098345	          0.16060008	          0.09945312	          0.20611408	          0.14876991	          0.10947547	          0.13371806	          0.22310103	          0.33851292	          0.16343116	          0.17086524	          0.28828834	          0.19804526	          0.29870230	          0.23729280	          0.23307548	          0.47063086	          0.37383164	          0.15719323	          0.38328823	          0.18098940	          0.21490922	          0.02454512	          0.25692338	          0.61854219	          0.12954035	          0.08295770	          0.03338383	          0.06908691	          0.12777582	          0.19317306	          0.08077842	          0.09393794	          0.08796383	          0.08385332	          0.03214136	          0.27214138	          0.23496681	          0.27260192	          0.29308131	          0.31165374	          0.22228435	          0.12570437	          0.05724867	          0.03182754	          0.02237500	          0.66092098	          0.14348396	          0.06221511	          0.50254914	          0.29885166	          0.17453297	          0.11009887	          0.60463243	          0.10537539	          0.06061405	          0.06751071	          0.39235363	          0.51849286	          0.31691118	          0.06033020	          0.08081880	          0.04173795	          0.57815489	          0.47119555	          0.43349022	          0.10982688	          0.05795861	          0.08912366	
          0.03000000	         -5.46264633	         -0.47764166	         -1.15758906	          0.88895590	          0.92145341	         -0.20851521	         21.69003705	          0.12494494	        -11.22090153	         -4.65557929	          1.43465934	         -5.32858404	          2.34402828	          3.99969394	          4.74056521	         15.19776262	          5.94920318	          6.86628861	        -31.43410374	        -18.94603334	         -3.59733854	         -0.93137742	         -0.01378507	         -0.62809371	         -3.90060587	         15.09306820	          3.22230134	         -5.92449080	         21.59571620	         15.88091666	         22.43620481	         65.52666412	         79.96117753	          0.12379250	          0.08381412	          0.11406747	          0.10528007	          0.13105199	          0.19588506	          0.20202901	          0.33814291	          0.42494541	          0.33150233	          0.20024883	          0.15201727	          0.16351848	          0.09909983	          0.21509504	          0.15079166	          0.10530693	          0.15985243	          0.25427204	          0.36307192	          0.18179654	          0.18507968	          0.32386244	          0.19162861	          0.30808449	          0.25139759	          0.23741625	          0.46653222	          0.36756725	          0.15322125	          0.39819514	          0.17585669	          0.19481389	          0.02293984	          0.28190965	          0.61049930	          0.12162979	          0.08652446	          0.03085986	          0.06944552	          0.11802842	          0.18425357	          0.08061697	          0.09552921	          0.08530934	          0.08249588	          0.04601681	          0.29400615	          0.22625114	          0.26874119	          0.28200738	          0.30402214	          0.23632135	          0.13253453	          0.06229171	          0.03422832	          0.02165936	          0.67620721	          0.14324791	          0.06640440	          0.52671120	          0.30714344	          0.17181387	          0.10863107	          0.62772659	          0.09868219	          0.05094257	          0.07311423	          0.40762421	          0.51223011	          0.33829317	          0.05027625	          0.08747733	          0.04871186	          0.54198340	          0.45543153	          0.41652498	          0.10525606	          0.05419610	          0.08446867	
